<svg xmlns="http://www.w3.org/2000/svg" width="19.825" height="22.003" viewBox="0 0 19.825 22.003">
  <g id="box" transform="translate(-2.4 -1.374)">
    <path id="Контур_35" data-name="Контур 35" d="M21.625,16.486V8.208a2.069,2.069,0,0,0-1.035-1.79L13.347,2.279a2.069,2.069,0,0,0-2.069,0L4.035,6.418A2.069,2.069,0,0,0,3,8.208v8.278a2.069,2.069,0,0,0,1.035,1.79l7.243,4.139a2.069,2.069,0,0,0,2.069,0l7.243-4.139A2.069,2.069,0,0,0,21.625,16.486Z" transform="translate(0)" fill="none" stroke="#fff" stroke-linecap="round" stroke-linejoin="round" stroke-width="1.2"/>
    <path id="Контур_36" data-name="Контур 36" d="M3.27,6.96,12.3,12.185,21.336,6.96" transform="translate(0.009 0.172)" fill="none" stroke="#fff" stroke-linecap="round" stroke-linejoin="round" stroke-width="1.2"/>
    <line id="Линия_57" data-name="Линия 57" y1="10.43" transform="translate(12.312 12.347)" fill="none" stroke="#fff" stroke-linecap="round" stroke-linejoin="round" stroke-width="1.2"/>
  </g>
</svg>
