<svg xmlns="http://www.w3.org/2000/svg" width="60.911" height="42.353" viewBox="0 0 60.911 42.353">
  <g id="guides" transform="translate(-228.15 -179.95)">
    <path id="Контур_12428" data-name="Контур 12428" d="M256.547,220.958a4.533,4.533,0,0,0-4.535-4.535H228.8V180.8h23.212a4.533,4.533,0,0,1,4.535,4.535v35.623Z" transform="translate(0 -0.081)" fill="none" stroke="#666" stroke-linecap="round" stroke-linejoin="round" stroke-miterlimit="10" stroke-width="1.3"/>
    <path id="Контур_12429" data-name="Контур 12429" d="M303.147,196.234V180.6H279.935a4.533,4.533,0,0,0-4.535,4.535v35.683a4.533,4.533,0,0,1,4.535-4.535h1.492" transform="translate(-18.794)" fill="none" stroke="#666" stroke-linecap="round" stroke-linejoin="round" stroke-miterlimit="10" stroke-width="1.3"/>
    <line id="Линия_1150" data-name="Линия 1150" x1="15.276" transform="translate(235.006 187.82)" fill="none" stroke="#666" stroke-linecap="round" stroke-linejoin="round" stroke-miterlimit="10" stroke-width="1.3"/>
    <line id="Линия_1151" data-name="Линия 1151" x1="15.276" transform="translate(235.006 192.773)" fill="none" stroke="#666" stroke-linecap="round" stroke-linejoin="round" stroke-miterlimit="10" stroke-width="1.3"/>
    <line id="Линия_1152" data-name="Линия 1152" x1="15.276" transform="translate(235.006 197.666)" fill="none" stroke="#666" stroke-linecap="round" stroke-linejoin="round" stroke-miterlimit="10" stroke-width="1.3"/>
    <line id="Линия_1153" data-name="Линия 1153" x1="15.276" transform="translate(262.752 187.82)" fill="none" stroke="#666" stroke-linecap="round" stroke-linejoin="round" stroke-miterlimit="10" stroke-width="1.3"/>
    <line id="Линия_1154" data-name="Линия 1154" x1="15.276" transform="translate(262.752 192.773)" fill="none" stroke="#666" stroke-linecap="round" stroke-linejoin="round" stroke-miterlimit="10" stroke-width="1.3"/>
    <line id="Линия_1155" data-name="Линия 1155" x1="3.819" transform="translate(262.752 197.666)" fill="none" stroke="#666" stroke-linecap="round" stroke-linejoin="round" stroke-miterlimit="10" stroke-width="1.3"/>
    <line id="Линия_1156" data-name="Линия 1156" x1="15.276" transform="translate(235.006 202.559)" fill="none" stroke="#666" stroke-linecap="round" stroke-linejoin="round" stroke-miterlimit="10" stroke-width="1.3"/>
    <path id="Контур_12430" data-name="Контур 12430" d="M306.145,229.5h-2.625a.535.535,0,0,1-.537-.537V226.7c0-1.492,1.253-2.148,2.208-2.685,1.372-.716,1.909-1.193,1.909-2.088a2.266,2.266,0,0,0-2.267-2.267,3.211,3.211,0,0,0-2.625,1.671.287.287,0,0,1-.358.119l-2.745-1.611a.287.287,0,0,1-.119-.358,6.766,6.766,0,0,1,5.848-3.58,6,6,0,0,1,5.967,6.027c0,3.222-3.043,4.177-3.879,5.37a5.613,5.613,0,0,0-.179,1.671A.635.635,0,0,1,306.145,229.5Z" transform="translate(-28.296 -14.236)" fill="none" stroke="#666" stroke-linecap="round" stroke-linejoin="round" stroke-miterlimit="10" stroke-width="1.3"/>
    <path id="Контур_12431" data-name="Контур 12431" d="M300.774,209.6a11.885,11.885,0,0,0-1.372,23.689,2.372,2.372,0,0,1-1.014-1.909,2.33,2.33,0,0,1,2.327-2.327,2.37,2.37,0,0,1,2.327,2.327,2.485,2.485,0,0,1-1.014,1.969,11.909,11.909,0,0,0-1.253-23.749Z" transform="translate(-24.238 -11.696)" fill="none" stroke="#666" stroke-linecap="round" stroke-linejoin="round" stroke-miterlimit="10" stroke-width="1.3"/>
  </g>
</svg>
