<svg xmlns="http://www.w3.org/2000/svg" width="32.093" height="28.521" viewBox="0 0 32.093 28.521">
  <path id="Icon_awesome-edit" data-name="Icon awesome-edit" d="M22.432,4.637l5.026,5.026a.545.545,0,0,1,0,.769L15.289,22.6l-5.171.574a1.084,1.084,0,0,1-1.2-1.2l.574-5.171L21.663,4.637A.545.545,0,0,1,22.432,4.637Zm9.026-1.276L28.739.642a2.179,2.179,0,0,0-3.076,0L23.691,2.615a.545.545,0,0,0,0,.769l5.026,5.026a.545.545,0,0,0,.769,0l1.972-1.972a2.179,2.179,0,0,0,0-3.076ZM21.4,19.291v5.672H3.566V7.133h12.8a.685.685,0,0,0,.474-.2L19.072,4.71A.669.669,0,0,0,18.6,3.567H2.674A2.675,2.675,0,0,0,0,6.242V25.854a2.675,2.675,0,0,0,2.674,2.674H22.287a2.675,2.675,0,0,0,2.674-2.674V17.062a.67.67,0,0,0-1.142-.474L21.59,18.817A.685.685,0,0,0,21.4,19.291Z" transform="translate(0 -0.007)" fill="#707070"/>
</svg>
