<svg xmlns="http://www.w3.org/2000/svg" width="51.666" height="53.255" viewBox="0 0 51.666 53.255">
  <g id="boxing" transform="translate(-285.15 -206.55)">
    <path id="Контур_12414" data-name="Контур 12414" d="M354.1,214.8h8.411a3.848,3.848,0,0,1,3.823,3.823v15.051" transform="translate(-40.813 -4.541)" fill="none" stroke="#666" stroke-linecap="round" stroke-linejoin="round" stroke-miterlimit="10" stroke-width="1.3"/>
    <path id="Контур_12415" data-name="Контур 12415" d="M314.091,263.756H289.623a3.847,3.847,0,0,1-3.823-3.823v-41.21a3.847,3.847,0,0,1,3.823-3.823h8.411" transform="translate(0 -4.601)" fill="none" stroke="#666" stroke-linecap="round" stroke-linejoin="round" stroke-miterlimit="10" stroke-width="1.3"/>
    <path id="Контур_12416" data-name="Контур 12416" d="M303.5,236.766l1.046,1.046,2.012-2.012" transform="translate(-10.577 -17.09)" fill="none" stroke="#666" stroke-linecap="round" stroke-linejoin="round" stroke-miterlimit="10" stroke-width="1.3"/>
    <line id="Линия_1137" data-name="Линия 1137" x2="3.662" transform="translate(300.248 239.596)" fill="none" stroke="#666" stroke-linecap="round" stroke-linejoin="round" stroke-miterlimit="10" stroke-width="1.3"/>
    <line id="Линия_1138" data-name="Линия 1138" x2="2.415" transform="translate(300.248 246.317)" fill="none" stroke="#666" stroke-linecap="round" stroke-linejoin="round" stroke-miterlimit="10" stroke-width="1.3"/>
    <path id="Контур_12417" data-name="Контур 12417" d="M330.185,213.317H317.307a1.186,1.186,0,0,1-1.207-1.207v-3.7a1.186,1.186,0,0,1,1.207-1.207h12.878a1.186,1.186,0,0,1,1.207,1.207v3.7A1.186,1.186,0,0,1,330.185,213.317Z" transform="translate(-18.106)" fill="none" stroke="#666" stroke-linecap="round" stroke-linejoin="round" stroke-miterlimit="10" stroke-width="1.3"/>
    <path id="Контур_12418" data-name="Контур 12418" d="M353.011,285.457l14.126-6.157v15.856l-14.126,7.083L338,295.156V279.3Z" transform="translate(-31.193 -43.084)" fill="none" stroke="#666" stroke-linecap="round" stroke-linejoin="round" stroke-miterlimit="10" stroke-width="1.3"/>
    <path id="Контур_12419" data-name="Контур 12419" d="M338,272.069l14.568-4.869,14.568,4.869" transform="translate(-31.193 -35.854)" fill="none" stroke="#666" stroke-linecap="round" stroke-linejoin="round" stroke-miterlimit="10" stroke-width="1.3"/>
    <line id="Линия_1139" data-name="Линия 1139" y1="5.634" x2="13.884" transform="translate(313.971 233.519)" fill="none" stroke="#666" stroke-linecap="round" stroke-linejoin="round" stroke-miterlimit="10" stroke-width="1.3"/>
    <line id="Линия_1140" data-name="Линия 1140" y2="16.782" transform="translate(321.818 242.373)" fill="none" stroke="#666" stroke-linecap="round" stroke-linejoin="round" stroke-miterlimit="10" stroke-width="1.3"/>
    <path id="Контур_12420" data-name="Контур 12420" d="M367.137,312.2l-14.126,7.043L338,312.2" transform="translate(-31.193 -62.744)" fill="none" stroke="#666" stroke-linecap="round" stroke-linejoin="round" stroke-miterlimit="10" stroke-width="1.3"/>
    <path id="Контур_12421" data-name="Контур 12421" d="M303.5,251.966l1.046,1.046L306.559,251" transform="translate(-10.577 -26.173)" fill="none" stroke="#666" stroke-linecap="round" stroke-linejoin="round" stroke-miterlimit="10" stroke-width="1.3"/>
    <path id="Контур_12422" data-name="Контур 12422" d="M303.5,268.666l1.046,1.046,2.012-2.012" transform="translate(-10.577 -36.152)" fill="none" stroke="#666" stroke-linecap="round" stroke-linejoin="round" stroke-miterlimit="10" stroke-width="1.3"/>
    <path id="Контур_12423" data-name="Контур 12423" d="M306.4,284.3h-2.254a.232.232,0,0,0-.241.241V286.8a.232.232,0,0,0,.241.241H306.4a.232.232,0,0,0,.241-.241v-2.254Q306.576,284.3,306.4,284.3Z" transform="translate(-10.816 -46.072)" fill="none" stroke="#666" stroke-linecap="round" stroke-linejoin="round" stroke-miterlimit="10" stroke-width="1.3"/>
    <path id="Контур_12424" data-name="Контур 12424" d="M306.4,301h-2.254a.232.232,0,0,0-.241.241V303.5a.232.232,0,0,0,.241.241H306.4a.232.232,0,0,0,.241-.241v-2.254Q306.576,301,306.4,301Z" transform="translate(-10.816 -56.051)" fill="none" stroke="#666" stroke-linecap="round" stroke-linejoin="round" stroke-miterlimit="10" stroke-width="1.3"/>
    <line id="Линия_1141" data-name="Линия 1141" x2="7.928" transform="translate(300.248 232.594)" fill="none" stroke="#666" stroke-linecap="round" stroke-linejoin="round" stroke-miterlimit="10" stroke-width="1.3"/>
    <line id="Линия_1142" data-name="Линия 1142" x2="15.252" transform="translate(300.248 225.873)" fill="none" stroke="#666" stroke-linecap="round" stroke-linejoin="round" stroke-miterlimit="10" stroke-width="1.3"/>
    <line id="Линия_1143" data-name="Линия 1143" x2="15.252" transform="translate(300.248 219.756)" fill="none" stroke="#666" stroke-linecap="round" stroke-linejoin="round" stroke-miterlimit="10" stroke-width="1.3"/>
  </g>
</svg>
