<svg xmlns="http://www.w3.org/2000/svg" width="56.649" height="42.145" viewBox="0 0 56.649 42.145">
  <g id="store" transform="translate(-532.8 -274.3)">
    <path id="Контур_12413" data-name="Контур 12413" d="M584.324,290.1v22.175h3.041a2.1,2.1,0,0,1,1.469.615,2.065,2.065,0,0,1,.615,1.469,2.1,2.1,0,0,1-.615,1.469,2.065,2.065,0,0,1-1.469.615H534.884a2.1,2.1,0,0,1-1.469-.615,2.065,2.065,0,0,1-.615-1.469,2.1,2.1,0,0,1,.615-1.469,2.065,2.065,0,0,1,1.469-.615h3.041V290.188a3.745,3.745,0,0,1-1.145-.769,3.594,3.594,0,0,1-1.059-2.528v-4.22a.464.464,0,0,1,.1-.29l5.04-7.824a.483.483,0,0,1,.427-.256h39.48a.528.528,0,0,1,.41.222l5.057,7.858a.464.464,0,0,1,.1.29v4.22a3.564,3.564,0,0,1-1.059,2.528,3.486,3.486,0,0,1-.957.683Zm-13.991.359A3.563,3.563,0,0,1,567.8,289.4a3.358,3.358,0,0,1-.564-.735,3.363,3.363,0,0,1-.564.735,3.547,3.547,0,0,1-5.057,0,3.358,3.358,0,0,1-.564-.735,3.364,3.364,0,0,1-.564.735,3.547,3.547,0,0,1-5.057,0,3.367,3.367,0,0,1-.564-.735,3.358,3.358,0,0,1-.564.735,3.547,3.547,0,0,1-5.057,0,3.363,3.363,0,0,1-.564-.735,3.361,3.361,0,0,1-.564.735,3.547,3.547,0,0,1-5.057,0,3.357,3.357,0,0,1-.564-.735,3.361,3.361,0,0,1-.564.735,3.705,3.705,0,0,1-2.955,1.042V312.26H554.6V293.519a.477.477,0,0,1,.478-.478H567.36a.477.477,0,0,1,.478.478v18.758h15.614V290.41a3.737,3.737,0,0,1-.615.051,3.564,3.564,0,0,1-2.528-1.059,3.362,3.362,0,0,1-.564-.735,3.361,3.361,0,0,1-.564.735,3.547,3.547,0,0,1-5.057,0,3.359,3.359,0,0,1-.564-.735,3.359,3.359,0,0,1-.564.735,4.041,4.041,0,0,1-2.665,1.059Zm-.615,14.026a.478.478,0,0,0,.478.478H581.42a.478.478,0,0,0,.478-.478V293.519a.478.478,0,0,0-.478-.478H570.2a.478.478,0,0,0-.478.478v10.968ZM541.1,293.024a.477.477,0,0,0-.478.478v10.985a.477.477,0,0,0,.478.478h11.224a.478.478,0,0,0,.478-.478V293.519a.477.477,0,0,0-.478-.478H541.1Zm25.677.974H555.47V312.26h11.309V294Zm-2.17,6.355v2.375a.478.478,0,0,0,.957,0v-2.375a.478.478,0,0,0-.957,0ZM570.691,294v9.994h10.25V294Zm1.2,5.091a.487.487,0,1,0,.6.769l2.938-2.289a.487.487,0,1,0-.6-.769l-2.938,2.289Zm.256,2.34a.487.487,0,0,0,.6.769l6.851-5.313a.487.487,0,0,0-.6-.769l-6.851,5.313Zm3.776-5.467a.487.487,0,0,0,.6.769l.905-.7a.487.487,0,1,0-.6-.769l-.905.7Zm.29,4.835a.487.487,0,0,0,.6.769l2.938-2.289a.487.487,0,0,0-.6-.769l-2.938,2.289Zm-1.982,1.538a.487.487,0,1,0,.6.769l.905-.7a.487.487,0,0,0-.6-.769l-.905.7Zm-22.4,1.657V294h-10.25v9.994Zm-8.849-2.563a.487.487,0,0,0,.6.769l6.851-5.313a.487.487,0,0,0-.6-.769l-6.851,5.313Zm7.7-2.836a.488.488,0,0,0-.683-.085l-2.938,2.289a.487.487,0,1,0,.6.769l2.938-2.289a.506.506,0,0,0,.085-.683Zm-4.032,3.126a.488.488,0,0,0-.683-.085l-.905.7a.487.487,0,1,0,.6.769l.906-.7a.475.475,0,0,0,.085-.683Zm-.29-4.835a.488.488,0,0,0-.683-.085l-2.938,2.289a.487.487,0,1,0,.6.769l2.938-2.289a.475.475,0,0,0,.085-.683Zm1.982-1.538a.488.488,0,0,0-.683-.085l-.906.7a.487.487,0,0,0,.6.769l.905-.7a.49.49,0,0,0,.085-.683Zm-7.192-6.611a2.62,2.62,0,0,0,.769-1.794v-3.775h-5.245v3.724a2.6,2.6,0,0,0,.769,1.845,2.386,2.386,0,0,0,.461.359,2.691,2.691,0,0,0,.974.376,3.322,3.322,0,0,0,.427.034,2.668,2.668,0,0,0,1.845-.769Zm1.743-1.794a2.614,2.614,0,0,0,5.228,0v-3.775h-5.245v3.724c.017,0,.017.034.017.051Zm6.2-1.059v1.042a2.614,2.614,0,0,0,5.228,0v-3.775h-5.245v2.733Zm6.2-.974v2.016a2.614,2.614,0,0,0,5.228,0v-3.775h-5.245v1.76Zm6.218,0v2.016a2.614,2.614,0,0,0,5.228,0v-3.775H561.5v1.76Zm6.2,0v2.016a2.614,2.614,0,0,0,5.228,0v-3.775H567.7v1.76Zm6.2,0v2.016a2.614,2.614,0,0,0,5.228,0v-3.775H573.9v1.76Zm6.218-1.76v3.775a2.626,2.626,0,0,0,2.614,2.563,2.518,2.518,0,0,0,.615-.068,2.563,2.563,0,0,0,.974-.461,1.836,1.836,0,0,0,.273-.239,2.6,2.6,0,0,0,.769-1.845v-3.724Zm-38.028-.974,3.417-6.919h-3.981l-4.459,6.919Zm1.076,0h5.091l2.511-6.919H546.6l-3.417,6.919Zm33.33-6.919,3.417,6.919h5.023l-4.459-6.919Zm2.358,6.919-3.417-6.919h-4.185l2.511,6.919Zm-12.762-6.919,1.5,6.919h5.125l-2.511-6.919Zm-4.6,6.919h5.125l-1.5-6.919h-3.622v6.919Zm-.974,0v-6.919h-3.622l-1.5,6.919Zm-4.647-6.919H551.78l-2.511,6.919h5.125l1.5-6.919Zm11.361,37.977H534.884a1.11,1.11,0,1,0,0,2.221h52.5a1.11,1.11,0,1,0,0-2.221H567.258Z" transform="translate(0 0)" fill="#666" fill-rule="evenodd"/>
  </g>
</svg>
