<svg xmlns="http://www.w3.org/2000/svg" width="41.872" height="48.328" viewBox="0 0 41.872 48.328">
  <g id="NewGroupe0_2_" transform="translate(-283.3 -188.9)">
    <g id="NewGroup2-0" transform="translate(283.3 188.9)">
      <g id="Сгруппировать_9994" data-name="Сгруппировать 9994" transform="translate(0 0)">
        <path id="Контур_12405" data-name="Контур 12405" d="M424.374,558.5a.91.91,0,0,1-.831.551,1.014,1.014,0,0,1-.348-.068.91.91,0,0,1-.551-.831,1.013,1.013,0,0,1,.068-.348.933.933,0,0,1,.329-.4.885.885,0,0,1,.5-.155,1.012,1.012,0,0,1,.348.068.91.91,0,0,1,.551.831.828.828,0,0,1-.068.348Zm.425-2.213a2.246,2.246,0,0,0-1.257-.387,2.152,2.152,0,0,0-.87.174,2.253,2.253,0,0,0-1.373,2.068,2.151,2.151,0,0,0,.174.87,2.253,2.253,0,0,0,2.068,1.373,2.151,2.151,0,0,0,.87-.174,2.253,2.253,0,0,0,1.373-2.068,2.152,2.152,0,0,0-.174-.87,2.243,2.243,0,0,0-.812-.986Z" transform="translate(-407.961 -520.427)" fill="#41b649"/>
        <path id="Контур_12406" data-name="Контур 12406" d="M323.741,235.218a1.141,1.141,0,0,1-.4.483,1.117,1.117,0,0,1-.619.193h-2.513c-.019-.251-.039-.532-.058-.773-.01-.135-.019-.261-.029-.348,0-.048-.01-.087-.01-.106v-.048h0l-.29-3.953h0l-2.368-32.515h2.677a1.123,1.123,0,0,1,.406.077,1.053,1.053,0,0,1,.474.367,1.084,1.084,0,0,1,.213.58h0l2.59,35.541h0v.087a.908.908,0,0,1-.077.416Zm-32.921.667h-5.055a1.1,1.1,0,0,1-1.1-1.1V234.7h0l.242-3.325h33.627l.242,3.325h0v.039c.01.126.039.561.077.976,0,.058.01.116.01.174H290.82ZM312.336,196.8h-1.711a8.934,8.934,0,0,0-3.857-6.331,7.625,7.625,0,0,1,9.318,6.321h-3.75Zm-17.64-1.875a7.684,7.684,0,0,1,2.764-3.354,7.627,7.627,0,0,1,7.23-.706,7.651,7.651,0,0,1,4.582,5.935h-15.1a7.588,7.588,0,0,1,.522-1.875Zm30.476,39.687-2.59-35.541h0a2.39,2.39,0,0,0-.242-.9,2.528,2.528,0,0,0-.889-1,2.439,2.439,0,0,0-1.315-.387h-2.7a8.972,8.972,0,0,0-12.324-7.211,8.961,8.961,0,0,0-6.9.029,8.985,8.985,0,0,0-5.413,7.172h-4.456a2.376,2.376,0,0,0-.909.174,2.445,2.445,0,0,0-1.054.812,2.366,2.366,0,0,0-.474,1.286h0l-.841,11.521a.678.678,0,1,0,1.353.1l.841-11.521h0a1.146,1.146,0,0,1,.106-.406,1.06,1.06,0,0,1,.406-.445,1.11,1.11,0,0,1,.59-.174h4.379v4.1a.677.677,0,0,0,1.353,0v-4.1h15.243v4.1a.677.677,0,1,0,1.353,0h0v-4.1h5.413l2.32,31.887H285.011l1.044-14.392a.678.678,0,1,0-1.353-.1h0l-1.1,15.117h0l-.29,3.953h0c0,.058-.01.116-.01.184a2.37,2.37,0,0,0,.193.947,2.47,2.47,0,0,0,2.262,1.508h36.952a2.447,2.447,0,0,0,2.445-2.445.536.536,0,0,0,.019-.174Z" transform="translate(-283.3 -188.9)" fill="#41b649"/>
        <path id="Контур_12407" data-name="Контур 12407" d="M376.07,432.5a.3.3,0,0,1-.048.1.172.172,0,0,1-.1.039H363.718a.164.164,0,0,1-.1-.029.141.141,0,0,1-.058-.087L360.77,421.8a.673.673,0,0,0-.657-.5h-2.436a.677.677,0,1,0,0,1.353H359.6l2.668,10.217h0a1.56,1.56,0,0,0,.532.812,1.523,1.523,0,0,0,.918.309h12.2a1.513,1.513,0,0,0,1.479-1.247l1.469-8.419h0a1.187,1.187,0,0,0,.019-.261,1.539,1.539,0,0,0-.348-.967h0a1.509,1.509,0,0,0-1.15-.532h-13a.677.677,0,1,0,0,1.353h13.01a.138.138,0,0,1,.116.058.2.2,0,0,1,.039.1v.029h0l-.6,3.451h-8.206a.677.677,0,0,0,0,1.353h7.974l-.648,3.6Z" transform="translate(-349.876 -398.837)" fill="#41b649"/>
        <path id="Контур_12408" data-name="Контур 12408" d="M568.1,539.6Z" transform="translate(-540.572 -505.702)" fill="#41b649"/>
        <path id="Контур_12409" data-name="Контур 12409" d="M512.864,558.5a.91.91,0,0,1-.831.551,1.014,1.014,0,0,1-.348-.068.91.91,0,0,1-.551-.831,1.012,1.012,0,0,1,.068-.348.933.933,0,0,1,.329-.4.885.885,0,0,1,.5-.155,1.012,1.012,0,0,1,.348.068.933.933,0,0,1,.4.329.883.883,0,0,1,.155.5.828.828,0,0,1-.068.348Zm.435-2.213a2.245,2.245,0,0,0-1.257-.387,2.152,2.152,0,0,0-.87.174,2.253,2.253,0,0,0-1.372,2.068,2.152,2.152,0,0,0,.174.87,2.253,2.253,0,0,0,2.068,1.373,2.151,2.151,0,0,0,.87-.174,2.253,2.253,0,0,0,1.373-2.068,2.152,2.152,0,0,0-.174-.87,2.31,2.31,0,0,0-.812-.986Z" transform="translate(-487.907 -520.427)" fill="#41b649"/>
        <path id="Контур_12410" data-name="Контур 12410" d="M299.677,433.353a.677.677,0,1,0-.677-.677.685.685,0,0,0,.677.677Z" transform="translate(-297.482 -408.503)" fill="#41b649"/>
      </g>
    </g>
  </g>
</svg>
