<svg xmlns="http://www.w3.org/2000/svg" width="32.698" height="41.772" viewBox="0 0 32.698 41.772">
  <g id="Сгруппировать_10168" data-name="Сгруппировать 10168" transform="translate(13856 -9199.611)">
    <path id="Контур_2621" data-name="Контур 2621" d="M1774.992,4035.163l-.547-.542h-19.271a1.56,1.56,0,0,0-1.56,1.559v5.453h-.661a1.985,1.985,0,0,0-1.985,1.985v8.125l.6.474h0l2.048,1.628V4074.2a1.559,1.559,0,0,0,1.56,1.56h26.264a1.559,1.559,0,0,0,1.559-1.56v-31.088l-8.005-8.088Z" transform="translate(-15606.299 5165.627)" fill="#804000"/>
    <path id="Контур_2624" data-name="Контур 2624" d="M1774.661,4033.7h-19.272a1.559,1.559,0,0,0-1.559,1.559v38.018a1.559,1.559,0,0,0,1.559,1.559h26.264a1.559,1.559,0,0,0,1.559-1.559v-31.089Z" transform="translate(-15607.184 5165.912)" fill="#fff"/>
    <path id="Контур_2625" data-name="Контур 2625" d="M1784.769,4041.017a1.749,1.749,0,0,0,1.749,1.749h6.257v-.4l-8.005-8.087Z" transform="translate(-15616.745 5165.732)" fill="#333" opacity="0.17" style="mix-blend-mode: multiply;isolation: isolate"/>
    <path id="Контур_2626" data-name="Контур 2626" d="M1783.978,4040.438a1.748,1.748,0,0,0,1.749,1.749h6.8l-8.552-8.487Z" transform="translate(-15616.501 5165.912)" fill="#f2f2f2"/>
    <rect id="Прямоугольник_1276" data-name="Прямоугольник 1276" width="21.923" height="1.991" rx="0.518" transform="translate(-13849.624 9220.179)" fill="#e5e5e5"/>
    <rect id="Прямоугольник_1277" data-name="Прямоугольник 1277" width="21.923" height="1.991" rx="0.518" transform="translate(-13849.624 9223.882)" fill="#e5e5e5"/>
    <rect id="Прямоугольник_1278" data-name="Прямоугольник 1278" width="21.923" height="1.991" rx="0.518" transform="translate(-13849.624 9227.585)" fill="#e5e5e5"/>
    <rect id="Прямоугольник_1279" data-name="Прямоугольник 1279" width="21.923" height="1.991" rx="0.518" transform="translate(-13849.624 9231.288)" fill="#e5e5e5"/>
    <rect id="Прямоугольник_1280" data-name="Прямоугольник 1280" width="21.923" height="1.991" rx="0.518" transform="translate(-13849.624 9234.991)" fill="#e5e5e5"/>
    <path id="Контур_2627" data-name="Контур 2627" d="M1750,4058.477l2.646,2.1v-2.1Z" transform="translate(-15606 5158.254)" fill="#0066a5"/>
    <g id="Сгруппировать_5553" data-name="Сгруппировать 5553" transform="translate(-13856 9207.099)">
      <g id="Сгруппировать_5551" data-name="Сгруппировать 5551">
        <path id="Контур_2628" data-name="Контур 2628" d="M1769.537,4044.536h-17.552a1.985,1.985,0,0,0-1.984,1.985v7.649h2.646v.474h16.89a1.747,1.747,0,0,0,1.747-1.747v-6.614A1.747,1.747,0,0,0,1769.537,4044.536Z" transform="translate(-1750 -4044.536)" fill="#333"/>
      </g>
      <g id="Сгруппировать_5552" data-name="Сгруппировать 5552" transform="translate(0 9.634)">
        <path id="Контур_2629" data-name="Контур 2629" d="M1750,4058.479l.6.474h2.05v-.474Z" transform="translate(-1750 -4058.479)" fill="#333"/>
      </g>
    </g>
    <path id="Контур_2630" data-name="Контур 2630" d="M1769.537,4043.848h-17.552a1.985,1.985,0,0,0-1.984,1.985v8.123h19.537a1.747,1.747,0,0,0,1.747-1.747v-6.615A1.747,1.747,0,0,0,1769.537,4043.848Z" transform="translate(-15606 5162.776)" fill="#007ec4"/>
    <path id="Контур_2631" data-name="Контур 2631" d="M1759.176,4050.162a2.241,2.241,0,0,1-2.509,2.257h-1.78v-4.515h1.78A2.238,2.238,0,0,1,1759.176,4050.162Zm-1.148,0c0-.671-.413-1.213-1.444-1.213h-.465v2.425h.465C1757.615,4051.375,1758.027,4050.826,1758.027,4050.162Z" transform="translate(-15607.51 5161.522)" fill="#fff"/>
    <path id="Контур_2632" data-name="Контур 2632" d="M1766.884,4050.116a2.429,2.429,0,1,1-2.425-2.36A2.412,2.412,0,0,1,1766.884,4050.116Zm-1.187,0a1.239,1.239,0,1,0-1.238,1.232A1.239,1.239,0,0,0,1765.7,4050.116Z" transform="translate(-15609.717 5161.568)" fill="#fff"/>
    <path id="Контур_2633" data-name="Контур 2633" d="M1773.479,4051.045l.607.864a2.418,2.418,0,1,1-1.528-4.153,2.419,2.419,0,0,1,1.528.567l-.607.858a1.515,1.515,0,0,0-.922-.316,1.256,1.256,0,1,0,0,2.5A1.57,1.57,0,0,0,1773.479,4051.045Z" transform="translate(-15612.178 5161.568)" fill="#fff"/>
  </g>
</svg>
