<svg xmlns="http://www.w3.org/2000/svg" width="32.613" height="41.772" viewBox="0 0 32.613 41.772">
  <g id="Сгруппировать_10169" data-name="Сгруппировать 10169" transform="translate(13810.782 -9199.611)">
    <path id="Контур_2622" data-name="Контур 2622" d="M1840.312,4035.163l-.547-.542h-19.271a1.56,1.56,0,0,0-1.559,1.559v5.453h-.661a1.985,1.985,0,0,0-1.985,1.985v.475h0v7.649l.6.474h0l2.048,1.628V4074.2a1.559,1.559,0,0,0,1.559,1.56h26.264a1.559,1.559,0,0,0,1.559-1.56v-31.088l-8.005-8.088Z" transform="translate(-15626.486 5165.627)" fill="#804000"/>
    <g id="Сгруппировать_5563" data-name="Сгруппировать 5563" transform="translate(-13808.135 9199.611)">
      <path id="Контур_2644" data-name="Контур 2644" d="M1840.1,4033.7h-19.271a1.559,1.559,0,0,0-1.559,1.559v38.018a1.559,1.559,0,0,0,1.559,1.559H1847.1a1.559,1.559,0,0,0,1.559-1.559v-31.089Z" transform="translate(-1819.274 -4033.7)" fill="#fff"/>
    </g>
    <path id="Контур_2645" data-name="Контур 2645" d="M1850.212,4041.017a1.749,1.749,0,0,0,1.749,1.749h6.257v-.4l-8.005-8.087Z" transform="translate(-15636.97 5165.732)" fill="#333" opacity="0.17" style="mix-blend-mode: multiply;isolation: isolate"/>
    <path id="Контур_2646" data-name="Контур 2646" d="M1849.421,4040.438a1.749,1.749,0,0,0,1.75,1.749h6.8l-8.552-8.487Z" transform="translate(-15636.726 5165.912)" fill="#f2f2f2"/>
    <rect id="Прямоугольник_1286" data-name="Прямоугольник 1286" width="21.923" height="1.991" rx="0.518" transform="translate(-13804.405 9220.179)" fill="#e5e5e5"/>
    <rect id="Прямоугольник_1287" data-name="Прямоугольник 1287" width="21.923" height="1.991" rx="0.518" transform="translate(-13804.405 9223.882)" fill="#e5e5e5"/>
    <rect id="Прямоугольник_1288" data-name="Прямоугольник 1288" width="21.923" height="1.991" rx="0.518" transform="translate(-13804.405 9227.585)" fill="#e5e5e5"/>
    <rect id="Прямоугольник_1289" data-name="Прямоугольник 1289" width="21.923" height="1.991" rx="0.518" transform="translate(-13804.405 9231.288)" fill="#e5e5e5"/>
    <rect id="Прямоугольник_1290" data-name="Прямоугольник 1290" width="21.923" height="1.991" rx="0.518" transform="translate(-13804.405 9234.991)" fill="#e5e5e5"/>
    <path id="Контур_2647" data-name="Контур 2647" d="M1815.443,4058.477l2.646,2.1v-2.1Z" transform="translate(-15626.226 5158.254)" fill="#177217"/>
    <g id="Сгруппировать_5567" data-name="Сгруппировать 5567" transform="translate(-13810.781 9207.099)">
      <g id="Сгруппировать_5565" data-name="Сгруппировать 5565" transform="translate(0)">
        <path id="Контур_2648" data-name="Контур 2648" d="M1834.981,4044.536h-17.552a1.985,1.985,0,0,0-1.984,1.985v7.649h2.646v.474h16.89a1.747,1.747,0,0,0,1.747-1.747v-6.614A1.747,1.747,0,0,0,1834.981,4044.536Z" transform="translate(-1815.444 -4044.536)" fill="#333"/>
      </g>
      <g id="Сгруппировать_5566" data-name="Сгруппировать 5566" transform="translate(0 9.634)">
        <path id="Контур_2649" data-name="Контур 2649" d="M1815.443,4058.479l.6.474h2.05v-.474Z" transform="translate(-1815.443 -4058.479)" fill="#333"/>
      </g>
    </g>
    <path id="Контур_2650" data-name="Контур 2650" d="M1834.981,4043.848h-17.552a1.985,1.985,0,0,0-1.984,1.985v8.123h19.537a1.747,1.747,0,0,0,1.747-1.747v-6.615A1.747,1.747,0,0,0,1834.981,4043.848Z" transform="translate(-15626.226 5162.776)" fill="#37b73d"/>
    <path id="Контур_2651" data-name="Контур 2651" d="M1823.819,4052.625l-.994-1.729-1.008,1.729H1820.2l1.736-2.738-1.6-2.57h1.547l.925,1.54.873-1.54h1.546l-1.532,2.547,1.684,2.761Z" transform="translate(-15627.696 5161.703)" fill="#fff"/>
    <path id="Контур_2652" data-name="Контур 2652" d="M1832.489,4051.4v1.229H1828.8v-5.308h1.456v4.079Z" transform="translate(-15630.353 5161.703)" fill="#fff"/>
    <path id="Контур_2653" data-name="Контур 2653" d="M1839.318,4051.134c-.113,1.5-1.622,1.637-2.494,1.547a4.395,4.395,0,0,1-2.025-.766l.667-1.1c.6.682,2.161.917,2.283.333.2-.956-2.813-.448-2.556-2.563.1-.789.675-1.54,2.3-1.448a2.921,2.921,0,0,1,1.654.515l-.515,1.138c-.486-.463-1.843-.728-1.972-.106C1836.483,4049.5,1839.455,4049.223,1839.318,4051.134Z" transform="translate(-15632.207 5161.761)" fill="#fff"/>
  </g>
</svg>
