<svg xmlns="http://www.w3.org/2000/svg" width="32.754" height="41.881" viewBox="0 0 32.754 41.881">
  <g id="Сгруппировать_10170" data-name="Сгруппировать 10170" transform="translate(13765.754 -9199.182)">
    <path id="Контур_2623" data-name="Контур 2623" d="M1905.683,4034.558v.142l-.547-.542h-19.272a1.559,1.559,0,0,0-1.559,1.559v5.453h-.662a1.985,1.985,0,0,0-1.984,1.985v8.123h0l.6.475h0l2.048,1.628v20.353a1.559,1.559,0,0,0,1.559,1.56h26.264a1.559,1.559,0,0,0,1.56-1.56v-31.089Z" transform="translate(-15646.688 5165.77)" fill="#804000"/>
    <g id="Сгруппировать_5556" data-name="Сгруппировать 5556" transform="translate(-13763.107 9199.183)">
      <path id="Контур_2634" data-name="Контур 2634" d="M1905.272,4033.079H1886a1.559,1.559,0,0,0-1.559,1.559v38.018a1.559,1.559,0,0,0,1.559,1.559h26.264a1.559,1.559,0,0,0,1.559-1.559v-31.089Z" transform="translate(-1884.441 -4033.079)" fill="#fff"/>
    </g>
    <path id="Контур_2635" data-name="Контур 2635" d="M1915.379,4040.4a1.749,1.749,0,0,0,1.75,1.749h6.256v-.4l-8.005-8.087Z" transform="translate(-15657.109 5165.925)" fill="#333" opacity="0.17" style="mix-blend-mode: multiply;isolation: isolate"/>
    <path id="Контур_2636" data-name="Контур 2636" d="M1914.589,4039.818a1.749,1.749,0,0,0,1.749,1.749h6.8l-8.551-8.488Z" transform="translate(-15656.865 5166.104)" fill="#f2f2f2"/>
    <rect id="Прямоугольник_1281" data-name="Прямоугольник 1281" width="21.923" height="1.991" rx="0.518" transform="translate(-13759.378 9219.751)" fill="#e5e5e5"/>
    <rect id="Прямоугольник_1282" data-name="Прямоугольник 1282" width="21.923" height="1.991" rx="0.518" transform="translate(-13759.378 9223.453)" fill="#e5e5e5"/>
    <rect id="Прямоугольник_1283" data-name="Прямоугольник 1283" width="21.923" height="1.991" rx="0.518" transform="translate(-13759.378 9227.156)" fill="#e5e5e5"/>
    <rect id="Прямоугольник_1284" data-name="Прямоугольник 1284" width="21.923" height="1.991" rx="0.518" transform="translate(-13759.378 9230.859)" fill="#e5e5e5"/>
    <rect id="Прямоугольник_1285" data-name="Прямоугольник 1285" width="21.923" height="1.991" rx="0.518" transform="translate(-13759.378 9234.563)" fill="#e5e5e5"/>
    <path id="Контур_2637" data-name="Контур 2637" d="M1880.611,4057.856l2.646,2.1v-2.1Z" transform="translate(-15646.365 5158.446)" fill="#bb2626"/>
    <g id="Сгруппировать_5560" data-name="Сгруппировать 5560" transform="translate(-13765.754 9206.67)">
      <g id="Сгруппировать_5558" data-name="Сгруппировать 5558" transform="translate(0)">
        <path id="Контур_2638" data-name="Контур 2638" d="M1900.148,4043.916H1882.6a1.984,1.984,0,0,0-1.984,1.984v7.649h2.646v.474h16.89a1.747,1.747,0,0,0,1.747-1.747v-6.615A1.747,1.747,0,0,0,1900.148,4043.916Z" transform="translate(-1880.611 -4043.916)" fill="#333"/>
      </g>
      <g id="Сгруппировать_5559" data-name="Сгруппировать 5559" transform="translate(0 9.634)">
        <path id="Контур_2639" data-name="Контур 2639" d="M1880.611,4057.859l.6.474h2.05v-.474Z" transform="translate(-1880.611 -4057.859)" fill="#333"/>
      </g>
    </g>
    <path id="Контур_2640" data-name="Контур 2640" d="M1900.148,4043.228H1882.6a1.984,1.984,0,0,0-1.984,1.984v8.124h19.537a1.747,1.747,0,0,0,1.747-1.748v-6.614A1.747,1.747,0,0,0,1900.148,4043.228Z" transform="translate(-15646.365 5162.967)" fill="#f93232"/>
    <path id="Контур_2641" data-name="Контур 2641" d="M1889.488,4048.736a1.8,1.8,0,0,1-1.942,1.771h-.683v1.444H1885.5v-4.98h2.049A1.794,1.794,0,0,1,1889.488,4048.736Zm-1.231,0c0-.313-.177-.612-.761-.612h-.634v1.231h.634C1888.08,4049.355,1888.257,4049.049,1888.257,4048.736Z" transform="translate(-15647.875 5161.811)" fill="#fff"/>
    <path id="Контур_2642" data-name="Контур 2642" d="M1897.343,4049.461a2.472,2.472,0,0,1-2.767,2.49h-1.964v-4.98h1.964A2.468,2.468,0,0,1,1897.343,4049.461Zm-1.266,0c0-.74-.455-1.337-1.594-1.337h-.512v2.675h.512C1895.621,4050.8,1896.076,4050.194,1896.076,4049.461Z" transform="translate(-15650.074 5161.811)" fill="#fff"/>
    <path id="Контур_2643" data-name="Контур 2643" d="M1902.164,4048.124v.761h2.013v1.152h-2.013v1.914H1900.8v-4.98h3.6v1.152Z" transform="translate(-15652.604 5161.811)" fill="#fff"/>
  </g>
</svg>
