<svg xmlns="http://www.w3.org/2000/svg" width="49.743" height="37.132" viewBox="0 0 49.743 37.132">
  <g id="Сгруппировать_9912" data-name="Сгруппировать 9912" transform="translate(-2080.763 -2803.686)">
    <g id="Сгруппировать_7449" data-name="Сгруппировать 7449">
      <g id="Сгруппировать_7447" data-name="Сгруппировать 7447">
        <path id="Контур_3859" data-name="Контур 3859" d="M2112.759,2816.763a27.908,27.908,0,0,0-1.143-3.31c-4.077.865-5.405-2.577-3.68-4.976a4.8,4.8,0,0,0-2.836-1.931c-1.719,2.549-6.37,1.271-5.952-2.21h-3.977c.333,3.729-4.269,4.521-6.228,2.21-.957.635-2.285.9-2.557,2.207,1.866,2.2.172,5.6-3.685,4.7a25.887,25.887,0,0,0-1.127,3.31,2.95,2.95,0,0,1,0,5.8,26.075,26.075,0,0,0,1.127,3.313c4.077-.876,5.405,2.567,3.685,4.973a4.752,4.752,0,0,0,2.84,1.924c1.716-2.542,6.366-1.268,5.945,2.214h3.977c-.33-3.73,4.267-4.519,6.236-2.214.961-.629,2.28-.9,2.552-2.207-1.868-2.2-.166-5.594,3.68-4.69a28.124,28.124,0,0,0,1.143-3.313A2.931,2.931,0,0,1,2112.759,2816.763Zm-15.595,8.656a5.756,5.756,0,1,1,5.907-5.751A5.831,5.831,0,0,1,2097.164,2825.419Z" fill="none" stroke="#666" stroke-width="1.3"/>
      </g>
      <g id="Сгруппировать_7448" data-name="Сгруппировать 7448" transform="translate(3)">
        <path id="Контур_3860" data-name="Контур 3860" d="M2126.767,2831.254a14.419,14.419,0,0,0-.387-1.823c-2.226.213-2.708-1.69-1.638-2.856a2.56,2.56,0,0,0-1.382-1.2,1.754,1.754,0,0,1-3.011-1.536c-.7-.077-1.4-.154-2.1-.238-.066,2-2.562,2.141-3.446.8-.552.276-1.261.339-1.5,1.016.857,1.278-.261,2.968-2.246,2.263a14.1,14.1,0,0,0-.81,1.686,1.574,1.574,0,0,1-.372,3.073,14.985,14.985,0,0,0,.394,1.823c2.221-.213,2.7,1.69,1.634,2.856a2.494,2.494,0,0,0,1.382,1.194,1.754,1.754,0,0,1,3.011,1.533c.7.077,1.4.157,2.1.241.061-2,2.558-2.14,3.445-.8.546-.275,1.263-.338,1.5-1.016-.846-1.274.269-2.971,2.253-2.266a15.4,15.4,0,0,0,.8-1.683A1.564,1.564,0,0,1,2126.767,2831.254Zm-8.812,3.645a3.1,3.1,0,0,1-2.764-3.4,3.132,3.132,0,0,1,3.49-2.693,3.087,3.087,0,0,1,2.772,3.4A3.142,3.142,0,0,1,2117.955,2834.9Z" fill="none" stroke="#666" stroke-width="1.3"/>
      </g>
    </g>
  </g>
</svg>
